SOL 101
CEND
SUBCASE 1
SPC = 313
LOAD = 307
DISPLACEMENT = ALL
SPCFORCES = ALL
BEGIN BULK
GRID,103,,100.0,0.0,0.0
GRID,105,,900.0,0.0,0.0
GRID,106,,700.0,0.0,0.0
GRID,101,,600.0,0.0,0.0
GRID,111,,300.0,0.0,0.0
GRID,107,,500.0,0.0,0.0
GRID,110,,0.0,0.0,0.0
GRID,108,,400.0,0.0,0.0
GRID,104,,800.0,0.0,0.0
GRID,102,,200.0,0.0,0.0
GRID,109,,1000.0,0.0,0.0
MAT1,313,210000.0,,0.3
PBAR,313,313,100.0,833.333,833.333,1400.0
CBAR,201,313,110,103,0.0,1.0,0.0
CBAR,205,313,111,108,0.0,1.0,0.0
CBAR,207,313,102,111,0.0,1.0,0.0
CBAR,208,313,108,107,0.0,1.0,0.0
CBAR,210,313,103,102,0.0,1.0,0.0
CBAR,202,313,101,106,0.0,1.0,0.0
CBAR,206,313,104,105,0.0,1.0,0.0
CBAR,204,313,106,104,0.0,1.0,0.0
CBAR,203,313,107,101,0.0,1.0,0.0
CBAR,209,313,105,109,0.0,1.0,0.0
FORCE,307,109,0,1.0,0.0,-1.0,0.0
SPC1,313,123456,110
ENDDATA
