SOL 101
CEND
SUBCASE 1
SPC = 1
LOAD = 1
DISPLACEMENT = ALL
SPCFORCES = ALL
BEGIN BULK
GRID,1,,0.0,0.0,0.0
GRID,2,,50.0,0.0,0.0
GRID,3,,500.0,0.0,0.0
GRID,4,,550.0,0.0,0.0
GRID,5,,600.0,0.0,0.0
GRID,6,,650.0,0.0,0.0
GRID,7,,700.0,0.0,0.0
GRID,8,,750.0,0.0,0.0
GRID,9,,800.0,0.0,0.0
GRID,10,,850.0,0.0,0.0
GRID,11,,900.0,0.0,0.0
GRID,12,,950.0,0.0,0.0
GRID,13,,100.0,0.0,0.0
GRID,14,,1000.0,0.0,0.0
GRID,15,,150.0,0.0,0.0
GRID,16,,200.0,0.0,0.0
GRID,17,,250.0,0.0,0.0
GRID,18,,300.0,0.0,0.0
GRID,19,,350.0,0.0,0.0
GRID,20,,400.0,0.0,0.0
GRID,21,,450.0,0.0,0.0
MAT1,1,210000.0,,0.3
PBAR,1,1,100.0,833.333,833.333,1400.0
CBAR,1,1,1,2,0.0,0.0,1.0
CBAR,2,1,2,13,0.0,0.0,1.0
CBAR,3,1,3,4,0.0,0.0,1.0
CBAR,4,1,4,5,0.0,0.0,1.0
CBAR,5,1,5,6,0.0,0.0,1.0
CBAR,6,1,6,7,0.0,0.0,1.0
CBAR,7,1,7,8,0.0,0.0,1.0
CBAR,8,1,8,9,0.0,0.0,1.0
CBAR,9,1,9,10,0.0,0.0,1.0
CBAR,10,1,10,11,0.0,0.0,1.0
CBAR,11,1,11,12,0.0,0.0,1.0
CBAR,12,1,12,14,0.0,0.0,1.0
CBAR,13,1,13,15,0.0,0.0,1.0
CBAR,14,1,15,16,0.0,0.0,1.0
CBAR,15,1,16,17,0.0,0.0,1.0
CBAR,16,1,17,18,0.0,0.0,1.0
CBAR,17,1,18,19,0.0,0.0,1.0
CBAR,18,1,19,20,0.0,0.0,1.0
CBAR,19,1,20,21,0.0,0.0,1.0
CBAR,20,1,21,3,0.0,0.0,1.0
FORCE,1,14,0,1.0,0.0,-1.0,0.0
SPC1,1,123456,1
ENDDATA
